PathFileType	4	(X/Y/Z)	Walk7.trc
DataRate	CameraRate	NumFrames	NumMarkers	Units	OrigDataRate	OrigDataStartFrame	OrigNumFrames
200.000000	200.000000	6	59	mm	200.000000	467	787
Frame#	Times		LCAR		LUA1		LACR1		RTH3		RCAR		RUA1		RACR1		LTB2		RTH1		RFHD		RWRR		RTH2		T10		RPSI		RElbowM		STRN		RBack		LMT5		LLFC		C7		RASI		LTB1		RTH4		LMT1		LPSI		LTB3		LFHD		LTB4		LToe		LLMAL		LTH3		LASI		LElbowM		LTH4		CLAV		RFA1		RElbow		RBHD		LTH1		RWRU		RLFC		LCAL		LFA1		RTB2		LWRR		LTH2		LBHD		LElbow		RTB1		RMT5		RTB3		LWRU		RTB4		RMT1		RToe		RMMAL		RLMAL		RCAL		LMMAL
			X1	Y1	Z1	X2	Y2	Z2	X3	Y3	Z3	X4	Y4	Z4	X5	Y5	Z5	X6	Y6	Z6	X7	Y7	Z7	X8	Y8	Z8	X9	Y9	Z9	X10	Y10	Z10	X11	Y11	Z11	X12	Y12	Z12	X13	Y13	Z13	X14	Y14	Z14	X15	Y15	Z15	X16	Y16	Z16	X17	Y17	Z17	X18	Y18	Z18	X19	Y19	Z19	X20	Y20	Z20	X21	Y21	Z21	X22	Y22	Z22	X23	Y23	Z23	X24	Y24	Z24	X25	Y25	Z25	X26	Y26	Z26	X27	Y27	Z27	X28	Y28	Z28	X29	Y29	Z29	X30	Y30	Z30	X31	Y31	Z31	X32	Y32	Z32	X33	Y33	Z33	X34	Y34	Z34	X35	Y35	Z35	X36	Y36	Z36	X37	Y37	Z37	X38	Y38	Z38	X39	Y39	Z39	X40	Y40	Z40	X41	Y41	Z41	X42	Y42	Z42	X43	Y43	Z43	X44	Y44	Z44	X45	Y45	Z45	X46	Y46	Z46	X47	Y47	Z47	X48	Y48	Z48	X49	Y49	Z49	X50	Y50	Z50	X51	Y51	Z51	X52	Y52	Z52	X53	Y53	Z53	X54	Y54	Z54	X55	Y55	Z55	X56	Y56	Z56	X57	Y57	Z57	X58	Y58	Z58	X59	Y59	Z59

467	2.335	-783.62	775.87	-298.6	-690.46	1189.5	-234.41	-632.81	1359.5	-136.69	-706.37	571.85	183.23	-408.58	816.58	349.91	-594.25	1173.3	274.16	-621.03	1345.6	174.99	-361.2	268.58	-85.111	-637.89	722.09	232.81	-513.49	1569.5	75.175	-439.81	854.48	295.97	-621.07	632.25	185.22	-770.29	1123.6	14.761	-764.13	944.71	49.226	-624.22	1008.3	226.52	-501.02	1211.8	15.958	-746.15	1288.7	136.43	-222.12	60.761	-62.989	-456.8	470.69	-104.13	-701.96	1390.4	32.516	-522.03	950.74	171.82	-362.33	358.42	-27.132	-674.25	646.65	206.35	-199.22	83.458	8.4327	-759.4	935.12	-38.988	-319	191.37	-30.553	-523.74	1573.9	-19.327	-341.33	274.11	-27.436	-143.07	109.4	-20.006	-320.14	71.79	-55.33	-503.38	576.27	-141.12	-509.97	936.12	-122.59	-790.47	1060.1	-182.98	-540.4	650.8	-164.89	-561.27	1316.3	16.402	-549.91	916.13	337.58	-611.07	1050.3	315.84	-664.5	1517.2	104.24	-575.87	721.57	-197.18	-486.67	824.91	342.32	-746.88	492.72	160.86	-367.07	21.374	-15.107	-804.08	952.13	-283.96	-831.85	265.44	139.19	-770	821.58	-256.11	-489.29	681.18	-157.17	-673.68	1516.4	-36.549	-762.67	1080.3	-259.11	-772.33	332.16	84.866	-863.61	23.266	114.85	-851.94	178.5	81.668	-823.87	837.76	-301.08	-812.14	254.42	79.85	-832.48	32.077	38.555	-764.49	18.376	66.726	-917.49	94.382	21.453	-932.7	88.562	103.92	-1003.3	76.274	69.955	-306.09	83.927	27.533
468	2.34	-779.5	775.1	-298.88	-684.02	1188.5	-235.02	-626.49	1358.8	-137.44	-700.39	571.35	183.03	-402.35	816.72	349.55	-588.57	1173	273.47	-614.99	1345.2	174.26	-356.05	266.91	-84.77	-631.41	721.21	232.69	-507.37	1569	74.325	-433.78	854.52	295.52	-614.92	631.51	185.06	-763.84	1122.6	13.952	-757.28	943.98	48.82	-618.43	1007.8	225.81	-494.43	1211.3	15.494	-739.85	1288	135.46	-220.47	57.961	-62.437	-449.5	470.27	-103.86	-695.68	1389.6	31.767	-515.58	950.07	171.62	-356.36	356.49	-26.341	-668	645.95	206.05	-197.11	79.761	9.1292	-752.38	934.67	-39.73	-315.09	189.1	-29.954	-517.75	1573.3	-19.998	-336.52	272.2	-26.901	-140.61	105.38	-19.114	-317.67	69.632	-54.863	-495.82	576.19	-141.12	-502.86	935.59	-122.73	-784.2	1059	-183.28	-533.27	650.61	-164.54	-555	1315.9	15.849	-544.14	915.78	336.9	-605.34	1050	315.5	-658.39	1516.5	103.43	-568.88	721.38	-196.82	-480.34	824.56	341.59	-741.08	492.35	160.82	-365.84	20.757	-15.947	-798.3	951.45	-284.25	-828.79	266.05	138.9	-765.43	820.91	-256.61	-482.25	681.11	-156.74	-667.68	1515.7	-37.33	-756.62	1079.4	-259.34	-768.1	331.88	84.599	-863.37	23.61	114.94	-849.61	178.91	81.799	-819.15	837.49	-301.73	-809.13	254.45	79.785	-832.3	32.24	38.644	-764.36	18.195	66.814	-916.47	95.762	21.938	-931.46	90.116	104.38	-1002.5	78.693	70.314	-304.22	81.114	28.114
469	2.345	-775.12	774.4	-299.49	-677.47	1187.4	-235.65	-620.01	1357.8	-138.2	-694.18	570.99	182.76	-396.42	816.8	349.13	-582.96	1172.6	273.02	-608.9	1344.8	173.55	-351.13	265.13	-84.4	-624.84	720.53	232.52	-501.4	1568.5	73.481	-427.96	854.67	295.15	-608.65	630.78	184.65	-757.25	1121.8	13.244	-750.1	943.2	48.455	-612.76	1007.3	225.11	-487.99	1210.9	14.976	-733.64	1287.4	134.57	-219.47	54.659	-61.88	-441.94	469.84	-103.46	-689.44	1389	30.768	-509.17	949.55	171.4	-350.71	354.52	-25.675	-661.42	645.29	205.8	-195.42	75.799	9.6724	-745.46	934.17	-40.344	-311.65	186.72	-29.392	-511.6	1572.9	-20.66	-332.12	269.83	-26.219	-138.4	100.56	-18.338	-315.74	67.252	-54.614	-488.49	576.16	-141.15	-495.96	935.17	-122.74	-777.85	1058	-183.47	-525.82	650.54	-164.14	-548.98	1315.2	15.027	-538.49	915.51	336.44	-599.87	1049.6	314.97	-652.31	1515.5	102.73	-561.61	721.23	-196.45	-474.38	824.23	341.19	-735.38	491.8	161.07	-365.14	19.542	-15.963	-792.71	950.98	-284.65	-825.44	266.37	138.88	-760.57	819.95	-257.28	-475.06	681.06	-156.31	-661.75	1515	-38.118	-750.25	1078.4	-259.58	-763.77	331.48	84.12	-863.02	23.836	115.08	-847.38	179.57	81.926	-814.55	837.12	-302.34	-805.8	254.5	79.8	-832.1	32.472	38.791	-764.26	18.013	66.908	-915.38	97.173	22.393	-930.28	91.833	104.79	-1001.3	81.09	71.06	-302.49	78.299	28.632
470	2.35	-770.53	773.67	-300.33	-670.8	1186.4	-236.07	-613.48	1356.9	-139.04	-687.81	570.4	182.65	-390.17	816.97	348.74	-577.51	1172.1	272.35	-603.08	1344.3	172.66	-346.8	263.35	-83.501	-618.1	719.82	232.28	-495.44	1568	72.633	-421.91	854.68	294.72	-602.17	630.06	184.59	-750.52	1121	12.574	-743.15	942.58	47.834	-607.25	1006.9	224.5	-481.84	1210.4	14.307	-727.33	1286.7	133.67	-218.47	50.863	-61.69	-434.6	469.33	-103	-683.32	1388.5	29.809	-502.67	948.84	170.98	-345.24	352.54	-25.234	-655.07	644.53	205.71	-193.92	71.307	9.4991	-738.66	933.76	-40.711	-308.18	184.24	-28.896	-505.69	1572.3	-21.463	-327.61	267.67	-25.472	-135.05	94.116	-17.905	-314.46	64.995	-53.772	-480.85	575.94	-141.29	-488.88	934.71	-123.1	-771.3	1057.1	-183.64	-518.56	650.03	-163.96	-542.52	1314.9	14.32	-532.81	915.12	335.96	-594.62	1049.2	314.22	-646.19	1514.7	101.9	-554.54	720.81	-196.15	-468.65	824.05	340.51	-729.38	491.09	160.71	-364.52	19.845	-15.493	-787.06	950.32	-285.09	-821.71	266.37	138.79	-755.64	819.3	-257.95	-467.57	680.85	-156.24	-655.85	1514.4	-38.877	-744.02	1077.3	-260.02	-759.33	330.88	84.015	-862.63	24.049	115.17	-845	180.29	81.904	-809.64	836.79	-302.99	-802.28	254.6	79.827	-831.9	32.765	38.84	-764.13	18.009	66.875	-914.15	98.436	22.927	-928.79	93.484	105	-1000.3	83.725	71.589	-301.06	75.743	29.901
471	2.355	-765.63	772.72	-300.95	-664.43	1185.3	-236.82	-607.06	1356.3	-140.15	-681.34	569.71	182.54	-384.46	816.94	348.27	-571.86	1171.7	271.85	-597.05	1343.9	171.81	-342.71	261.56	-82.113	-611.45	718.87	232.04	-489.38	1567.6	71.763	-416.4	854.58	294.17	-595.86	629.16	184.37	-743.79	1120.1	11.876	-736.41	942.05	47.352	-601.94	1006.7	223.92	-475.2	1210.1	13.834	-721.19	1286.2	132.71	-216.81	46.583	-61.256	-427.27	468.98	-102.59	-677.21	1387.9	28.969	-496.1	948.25	170.61	-339.72	350.9	-24.214	-648.75	643.72	205.58	-190.82	65.483	9.0188	-731.63	933.42	-41.013	-303.92	182.42	-27.722	-499.93	1572	-22.531	-322.81	265.9	-24.54	-130.62	85.283	-18.551	-312.57	63.986	-52.666	-473.31	575.67	-141.26	-481.48	934.26	-123.29	-764.55	1056	-183.96	-511.37	649.74	-163.94	-536.06	1314.3	13.621	-527.12	914.75	335.34	-589.3	1048.8	313.49	-639.95	1514.3	100.97	-547.61	720.56	-195.9	-463.09	823.72	339.89	-723.35	490.62	160.39	-363.36	21.262	-14.3	-780.91	949.58	-285.49	-817.76	266.58	138.86	-750.35	818.43	-258.79	-460.41	680.7	-156.2	-649.79	1513.7	-39.757	-737.56	1076.3	-260.38	-754.88	330.12	84.062	-862.1	24.351	115.25	-842.19	181.09	82.02	-804.33	836.35	-303.69	-798.69	254.75	79.848	-831.62	33.081	38.922	-764.06	17.814	66.984	-912.86	99.928	23.438	-927.33	95.132	105.38	-999	86.533	72.059	-299.12	73.422	31.192
472	2.36	-760.81	771.84	-301.55	-657.86	1184.2	-237.61	-600.75	1355.3	-141.21	-675.21	569.05	182.42	-379.29	816.96	347.88	-566.06	1171.2	271.13	-590.96	1343.6	170.99	-338.57	260.27	-80.617	-604.97	718.25	231.87	-483.35	1567.4	70.92	-410.98	854.57	293.66	-589.43	628.29	184.14	-736.96	1119.6	11.358	-729.83	941.6	46.992	-596.65	1006.4	223.28	-468.81	1209.7	13.152	-714.94	1285.7	131.88	-214.48	42.424	-60.945	-419.88	468.8	-102.2	-671.1	1387.2	27.697	-489.33	947.51	170.37	-334.01	349.94	-23.186	-642.32	642.98	205.34	-186.43	60.145	9.4546	-724.55	932.95	-41.415	-299.32	181.26	-26.331	-493.92	1571.8	-23.571	-317.53	264.8	-23.321	-126.64	77.893	-20.325	-309.52	64.673	-51.718	-466.1	575.54	-141.27	-474.32	933.77	-123.58	-757.78	1055	-184.41	-503.99	649.69	-164	-529.74	1313.8	12.997	-521.84	914.44	334.65	-583.98	1048.5	312.71	-634.19	1514	99.987	-540.39	720.27	-195.78	-457.73	823.47	339.64	-717.08	490.14	160.33	-361.56	22.812	-12.942	-774.87	948.95	-286.06	-813.71	266.83	138.97	-744.91	817.59	-259.68	-453.16	680.56	-156.32	-643.64	1513.3	-40.489	-730.89	1075.3	-260.81	-750.28	329.48	84.104	-861.55	24.75	115.38	-839.53	181.9	82.197	-798.79	835.89	-304.32	-794.98	254.79	79.835	-831.24	33.4	38.99	-763.95	17.675	67.036	-911.41	101.47	23.754	-925.97	96.985	106.08	-997.72	89.617	72.639	-295.54	72.49	31.649
